<svg xmlns="http://www.w3.org/2000/svg" width="87" height="91.661" viewBox="0 0 87 91.661">
  <g id="Flat" transform="translate(-32 -24)">
    <path id="Trazado_2242" data-name="Trazado 2242" d="M131.107,256h6.214a3.107,3.107,0,0,1,3.107,3.107v41.946H128V259.107A3.107,3.107,0,0,1,131.107,256Z" transform="translate(-77.357 -186.946)" fill="#e88604"/>
    <path id="Trazado_2243" data-name="Trazado 2243" d="M219.107,328h6.214a3.107,3.107,0,0,1,3.107,3.107v27.964H216V331.107A3.107,3.107,0,0,1,219.107,328Z" transform="translate(-148.268 -244.964)" fill="#d14547"/>
    <path id="Trazado_2244" data-name="Trazado 2244" d="M307.107,264h6.214a3.107,3.107,0,0,1,3.107,3.107V307.5H304V267.107A3.107,3.107,0,0,1,307.107,264Z" transform="translate(-219.179 -193.393)" fill="#eebe33"/>
    <g id="Grupo_225" data-name="Grupo 225" transform="translate(33.554 24)">
      <path id="Trazado_2245" data-name="Trazado 2245" d="M404.429,223.7H392V163.107A3.107,3.107,0,0,1,395.107,160h6.214a3.107,3.107,0,0,1,3.107,3.107Z" transform="translate(-323.643 -133.589)" fill="#4ba477"/>
      <path id="Trazado_2246" data-name="Trazado 2246" d="M108.357,24v6.214h4.661L83.5,59.732,64.857,41.089,40,65.946l4.661,4.661,20.2-20.2L83.5,69.054l34.179-34.179v4.661h6.214V24Z" transform="translate(-40 -24)" fill="#4ba477"/>
      <path id="Trazado_2247" data-name="Trazado 2247" d="M69.748,386.875a10.866,10.866,0,0,1-5.437,9.419l-.01.008A10.876,10.876,0,1,1,58.873,376v10.875Z" transform="translate(-46.444 -307.643)" fill="#4ba477"/>
    </g>
    <path id="Trazado_2248" data-name="Trazado 2248" d="M128,352h0a10.875,10.875,0,0,1,10.875,10.875H128Z" transform="translate(-77.357 -264.304)" fill="#8acce7"/>
    <path id="Trazado_2249" data-name="Trazado 2249" d="M64.313,441.419l-.01.008A10.879,10.879,0,0,1,48,432H58.875Z" transform="translate(-12.893 -328.768)" fill="#eebe33"/>
    <path id="Trazado_2250" data-name="Trazado 2250" d="M114.875,432a10.866,10.866,0,0,1-5.437,9.419L104,432Z" transform="translate(-58.018 -328.768)" fill="#396795"/>
    <path id="Trazado_2251" data-name="Trazado 2251" d="M32,480h87v3.107H32Z" transform="translate(0 -367.446)" fill="#395166"/>
  </g>
</svg>
