<?xml version="1.0" encoding="UTF-8"?>
<svg xmlns="http://www.w3.org/2000/svg" xmlns:xlink="http://www.w3.org/1999/xlink" width="64pt" height="64pt" viewBox="0 0 64 64" version="1.1">
<g id="surface1">
<path style=" stroke:none;fill-rule:nonzero;fill:rgb(0%,0%,0%);fill-opacity:1;" d="M 58.761719 0 L 5.660156 0 C 2.539062 0.0078125 0.00390625 3.246094 0 7.246094 L 0 55.550781 C 0.00390625 59.550781 2.539062 62.792969 5.660156 62.800781 L 58.761719 62.800781 C 61.882812 62.792969 64.417969 59.550781 64.421875 55.550781 L 64.421875 7.246094 C 64.417969 3.246094 61.882812 0.0078125 58.761719 0 Z M 57.976562 4.832031 L 32.332031 37.660156 L 6.460938 4.832031 Z M 3.773438 54.5625 L 3.773438 8.226562 L 21.953125 31.296875 Z M 6.445312 57.980469 L 24.644531 34.683594 L 31.019531 42.773438 C 31.753906 43.710938 32.945312 43.710938 33.683594 42.773438 L 39.886719 34.816406 L 57.976562 57.972656 Z M 60.644531 54.5625 L 42.550781 31.402344 L 60.644531 8.246094 Z M 60.644531 54.5625 "/>
</g>
</svg>
