<?xml version="1.0" encoding="UTF-8"?>
<svg xmlns="http://www.w3.org/2000/svg" xmlns:xlink="http://www.w3.org/1999/xlink" width="64pt" height="64pt" viewBox="0 0 64 64" version="1.1">
<g id="surface1">
<path style=" stroke:none;fill-rule:nonzero;fill:rgb(23.137255%,34.901961%,59.607843%);fill-opacity:1;" d="M 64.5 32.25 C 64.5 50.058594 50.058594 64.5 32.25 64.5 C 14.4375 64.5 0 50.058594 0 32.25 C 0 14.4375 14.4375 0 32.25 0 C 50.058594 0 64.5 14.4375 64.5 32.25 Z M 64.5 32.25 "/>
<path style=" stroke:none;fill-rule:nonzero;fill:rgb(100%,100%,100%);fill-opacity:1;" d="M 40.355469 33.511719 L 34.601562 33.511719 L 34.601562 54.59375 L 25.882812 54.59375 L 25.882812 33.511719 L 21.738281 33.511719 L 21.738281 26.101562 L 25.882812 26.101562 L 25.882812 21.308594 C 25.882812 17.878906 27.511719 12.511719 34.679688 12.511719 L 41.136719 12.539062 L 41.136719 19.730469 L 36.453125 19.730469 C 35.921875 19.699219 35.40625 19.910156 35.046875 20.300781 C 34.6875 20.691406 34.523438 21.222656 34.597656 21.75 L 34.597656 26.109375 L 41.113281 26.109375 Z M 40.355469 33.511719 "/>
</g>
</svg>
