<?xml version="1.0" encoding="UTF-8"?>
<svg xmlns="http://www.w3.org/2000/svg" xmlns:xlink="http://www.w3.org/1999/xlink" width="64pt" height="64pt" viewBox="0 0 64 64" version="1.1">
<g id="surface1">
<path style=" stroke:none;fill-rule:nonzero;fill:rgb(0%,0%,0%);fill-opacity:1;" d="M 8.539062 53.675781 C 8.613281 53.742188 8.691406 53.804688 8.773438 53.855469 C 14.785156 60.246094 23.167969 63.867188 31.941406 63.867188 C 40.710938 63.863281 49.09375 60.234375 55.097656 53.84375 C 55.175781 53.796875 55.253906 53.742188 55.320312 53.683594 C 55.375 53.609375 55.417969 53.53125 55.457031 53.449219 C 66.664062 41.296875 66.664062 22.578125 55.457031 10.425781 C 55.417969 10.34375 55.375 10.265625 55.320312 10.191406 C 55.25 10.125 55.167969 10.0625 55.082031 10.007812 C 49.078125 3.625 40.699219 0.00390625 31.933594 0.00390625 C 23.167969 0.00390625 14.789062 3.625 8.78125 10.007812 C 8.695312 10.0625 8.617188 10.125 8.542969 10.191406 C 8.492188 10.265625 8.445312 10.34375 8.40625 10.425781 C -2.796875 22.578125 -2.796875 41.296875 8.40625 53.449219 C 8.445312 53.527344 8.488281 53.601562 8.539062 53.675781 Z M 40.632812 59.304688 C 43.089844 56.34375 44.9375 52.925781 46.070312 49.25 C 48.078125 50.191406 49.96875 51.355469 51.710938 52.722656 C 48.566406 55.726562 44.777344 57.976562 40.632812 59.304688 Z M 53.914062 50.394531 C 51.789062 48.6875 49.457031 47.257812 46.976562 46.136719 C 48.003906 42.007812 48.5625 37.777344 48.648438 33.519531 L 60.582031 33.519531 C 60.25 39.71875 57.910156 45.644531 53.914062 50.394531 Z M 60.582031 30.332031 L 48.648438 30.332031 C 48.5625 26.078125 48.003906 21.84375 46.976562 17.714844 C 49.457031 16.59375 51.789062 15.167969 53.914062 13.464844 C 57.910156 18.214844 60.25 24.132812 60.582031 30.332031 Z M 51.710938 11.132812 C 49.96875 12.5 48.078125 13.667969 46.070312 14.605469 C 44.9375 10.929688 43.089844 7.511719 40.632812 4.550781 C 44.777344 5.878906 48.566406 8.132812 51.710938 11.140625 Z M 33.519531 3.414062 C 37.433594 4.441406 40.894531 9.144531 43.074219 15.804688 C 39.996094 16.867188 36.777344 17.480469 33.519531 17.621094 Z M 33.519531 20.816406 C 37.070312 20.683594 40.585938 20.039062 43.957031 18.902344 C 44.859375 22.648438 45.363281 26.480469 45.453125 30.332031 L 33.519531 30.332031 Z M 33.519531 33.523438 L 45.453125 33.523438 C 45.363281 37.375 44.859375 41.207031 43.957031 44.953125 C 40.585938 43.816406 37.070312 43.171875 33.519531 43.039062 Z M 33.519531 46.234375 C 36.777344 46.378906 39.996094 46.996094 43.074219 48.0625 C 40.894531 54.722656 37.433594 59.429688 33.519531 60.453125 Z M 12.136719 52.707031 C 13.878906 51.34375 15.773438 50.183594 17.777344 49.246094 C 18.914062 52.921875 20.757812 56.339844 23.214844 59.304688 C 19.070312 57.972656 15.28125 55.71875 12.136719 52.707031 Z M 30.328125 60.445312 C 26.414062 59.417969 22.953125 54.710938 20.769531 48.054688 C 23.851562 46.992188 27.070312 46.378906 30.328125 46.234375 Z M 30.328125 43.039062 C 26.773438 43.171875 23.257812 43.816406 19.890625 44.957031 C 18.984375 41.210938 18.484375 37.378906 18.390625 33.523438 L 30.328125 33.523438 Z M 30.328125 30.332031 L 18.394531 30.332031 C 18.484375 26.480469 18.988281 22.648438 19.894531 18.90625 C 23.261719 20.042969 26.777344 20.6875 30.328125 20.816406 Z M 30.328125 3.414062 L 30.328125 17.625 C 27.070312 17.476562 23.851562 16.859375 20.769531 15.796875 C 22.953125 9.144531 26.414062 4.4375 30.328125 3.414062 Z M 23.214844 4.542969 C 20.757812 7.507812 18.910156 10.929688 17.777344 14.609375 C 15.769531 13.667969 13.878906 12.503906 12.136719 11.136719 C 15.28125 8.128906 19.070312 5.871094 23.214844 4.542969 Z M 9.929688 13.464844 C 12.054688 15.167969 14.386719 16.597656 16.871094 17.71875 C 15.84375 21.847656 15.28125 26.082031 15.199219 30.335938 L 3.269531 30.335938 C 3.597656 24.136719 5.9375 18.214844 9.929688 13.464844 Z M 15.199219 33.523438 C 15.28125 37.78125 15.84375 42.011719 16.871094 46.140625 C 14.386719 47.261719 12.054688 48.6875 9.929688 50.390625 C 5.9375 45.640625 3.597656 39.722656 3.265625 33.523438 Z M 15.199219 33.523438 "/>
</g>
</svg>
