<?xml version="1.0" encoding="UTF-8"?>
<svg xmlns="http://www.w3.org/2000/svg" xmlns:xlink="http://www.w3.org/1999/xlink" width="150pt" height="150pt" viewBox="0 0 150 150" version="1.1">
<g id="surface1">
<path style=" stroke:none;fill-rule:nonzero;fill:rgb(26.666667%,72.156863%,42.352941%);fill-opacity:1;" d="M 75.070312 0 C 33.609375 0 0 33.609375 0 75.070312 C 0 116.53125 33.609375 150.140625 75.070312 150.140625 C 116.53125 150.140625 150.140625 116.53125 150.140625 75.070312 C 150.097656 33.628906 116.511719 0.0429688 75.070312 0 Z M 75.070312 142.023438 C 38.101562 142.019531 8.136719 112.046875 8.136719 75.078125 C 8.140625 38.109375 38.109375 8.140625 75.078125 8.136719 C 112.046875 8.136719 142.019531 38.101562 142.023438 75.070312 C 142.082031 92.84375 135.046875 109.910156 122.476562 122.476562 C 109.910156 135.046875 92.84375 142.082031 75.070312 142.023438 Z M 75.070312 142.023438 "/>
<path style=" stroke:none;fill-rule:nonzero;fill:rgb(26.666667%,72.156863%,42.352941%);fill-opacity:1;" d="M 50.554688 50.214844 C 55.039062 50.214844 58.671875 53.847656 58.671875 58.332031 C 58.671875 62.816406 55.039062 66.449219 50.554688 66.449219 C 46.070312 66.449219 42.4375 62.816406 42.4375 58.332031 C 42.4375 53.847656 46.070312 50.214844 50.554688 50.214844 Z M 50.554688 50.214844 "/>
<path style=" stroke:none;fill-rule:nonzero;fill:rgb(26.666667%,72.156863%,42.352941%);fill-opacity:1;" d="M 108.886719 58.332031 C 108.886719 62.816406 105.253906 66.449219 100.773438 66.449219 C 96.289062 66.449219 92.65625 62.816406 92.65625 58.332031 C 92.65625 53.847656 96.289062 50.214844 100.773438 50.214844 C 105.253906 50.214844 108.886719 53.847656 108.886719 58.332031 Z M 108.886719 58.332031 "/>
<path style=" stroke:none;fill-rule:nonzero;fill:rgb(26.666667%,72.156863%,42.352941%);fill-opacity:1;" d="M 74.925781 116.664062 C 90.808594 116.632812 105.609375 108.601562 114.289062 95.300781 L 107.472656 90.894531 C 100.375 101.90625 88.171875 108.558594 75.074219 108.558594 C 61.972656 108.558594 49.769531 101.90625 42.671875 90.894531 L 35.859375 95.300781 C 43.464844 106.976562 55.84375 114.6875 69.679688 116.359375 C 71.421875 116.5625 73.171875 116.664062 74.925781 116.664062 Z M 74.925781 116.664062 "/>
</g>
</svg>
