<?xml version="1.0" encoding="UTF-8"?>
<svg xmlns="http://www.w3.org/2000/svg" xmlns:xlink="http://www.w3.org/1999/xlink" width="150pt" height="150pt" viewBox="0 0 150 150" version="1.1">
<g id="surface1">
<path style=" stroke:none;fill-rule:nonzero;fill:rgb(93.72549%,62.745098%,4.313725%);fill-opacity:1;" d="M 91.160156 55.871094 C 89.535156 55.871094 88.21875 57.1875 88.21875 58.8125 C 88.21875 60.4375 89.535156 61.753906 91.160156 61.753906 C 92.785156 61.753906 94.097656 60.4375 94.097656 58.8125 C 94.097656 57.1875 92.78125 55.871094 91.160156 55.871094 Z M 91.160156 55.871094 "/>
<path style=" stroke:none;fill-rule:nonzero;fill:rgb(93.72549%,62.745098%,4.313725%);fill-opacity:1;" d="M 147.113281 130.480469 L 107.863281 91.230469 C 114.253906 81.628906 117.652344 70.347656 117.625 58.8125 C 117.625 26.328125 91.292969 0 58.8125 0 C 26.328125 0 -0.00390625 26.332031 0 58.8125 C 0 91.296875 26.332031 117.625 58.8125 117.625 C 70.347656 117.648438 81.628906 114.253906 91.230469 107.863281 L 102.078125 118.714844 L 130.480469 147.113281 C 133.441406 150.148438 137.800781 151.355469 141.898438 150.273438 C 145.996094 149.195312 149.195312 145.996094 150.273438 141.898438 C 151.355469 137.800781 150.148438 133.441406 147.113281 130.480469 Z M 89.851562 101.664062 C 67.46875 117.878906 36.386719 114.167969 18.449219 93.144531 C 0.515625 72.117188 1.753906 40.835938 21.296875 21.292969 C 40.839844 1.75 72.121094 0.511719 93.148438 18.445312 C 114.175781 36.382812 117.886719 67.464844 101.671875 89.84375 C 98.378906 94.382812 94.386719 98.375 89.851562 101.664062 Z M 96.019531 104.332031 C 99.0625 101.84375 101.847656 99.058594 104.335938 96.015625 L 112.679688 104.359375 C 110.140625 107.355469 107.359375 110.136719 104.363281 112.675781 Z M 142.949219 142.949219 C 141.847656 144.054688 140.351562 144.671875 138.792969 144.671875 C 137.230469 144.671875 135.738281 144.054688 134.632812 142.949219 L 108.53125 116.851562 C 111.511719 114.292969 114.292969 111.511719 116.851562 108.53125 L 142.949219 134.640625 C 144.054688 135.742188 144.671875 137.238281 144.671875 138.796875 C 144.671875 140.359375 144.054688 141.855469 142.949219 142.957031 Z M 142.949219 142.949219 "/>
<path style=" stroke:none;fill-rule:nonzero;fill:rgb(93.72549%,62.745098%,4.313725%);fill-opacity:1;" d="M 58.8125 11.761719 C 32.828125 11.761719 11.761719 32.828125 11.761719 58.8125 C 11.761719 84.796875 32.828125 105.863281 58.8125 105.863281 C 84.796875 105.863281 105.863281 84.796875 105.863281 58.8125 C 105.835938 32.839844 84.789062 11.789062 58.8125 11.761719 Z M 58.8125 99.984375 C 36.078125 99.984375 17.644531 81.550781 17.644531 58.8125 C 17.644531 36.078125 36.078125 17.644531 58.8125 17.644531 C 81.550781 17.644531 99.984375 36.078125 99.984375 58.8125 C 99.957031 81.539062 81.539062 99.957031 58.8125 99.984375 Z M 58.8125 99.984375 "/>
<path style=" stroke:none;fill-rule:nonzero;fill:rgb(93.72549%,62.745098%,4.313725%);fill-opacity:1;" d="M 91.765625 46.1875 C 86.523438 32.546875 73.425781 23.539062 58.8125 23.523438 C 57.1875 23.523438 55.871094 24.839844 55.871094 26.464844 C 55.871094 28.085938 57.1875 29.40625 58.8125 29.40625 C 70.980469 29.460938 81.875 36.957031 86.277344 48.304688 C 86.859375 49.820312 88.558594 50.578125 90.078125 49.996094 C 91.59375 49.414062 92.347656 47.710938 91.765625 46.195312 Z M 91.765625 46.1875 "/>
</g>
</svg>
