<svg xmlns="http://www.w3.org/2000/svg" xmlns:xlink="http://www.w3.org/1999/xlink" width="100" height="100" viewBox="0 0 100 100">
  <defs>
    <clipPath id="clip-path">
      <rect id="Rectángulo_1497" data-name="Rectángulo 1497" width="100" height="100" transform="translate(37 365)" fill="#fff" stroke="#707070" stroke-width="1"/>
    </clipPath>
  </defs>
  <g id="Enmascarar_grupo_33" data-name="Enmascarar grupo 33" transform="translate(-37 -365)" clip-path="url(#clip-path)">
    <g id="balance" transform="translate(37.93 365)">
      <g id="Grupo_108" data-name="Grupo 108" transform="translate(67.323 13.684)">
        <g id="Grupo_107" data-name="Grupo 107">
          <path id="Trazado_2193" data-name="Trazado 2193" d="M38,8.412a1.972,1.972,0,0,0-.111-.365,1.931,1.931,0,0,0-.424-.635,1.858,1.858,0,0,0-.3-.242,1.983,1.983,0,0,0-.336-.18,2.067,2.067,0,0,0-.365-.111,1.969,1.969,0,0,0-1.764.533,1.871,1.871,0,0,0-.242.3,2.019,2.019,0,0,0-.18.338,1.993,1.993,0,0,0-.111.365,1.925,1.925,0,0,0-.039.381,1.958,1.958,0,0,0,.039.383,2.027,2.027,0,0,0,.111.365,2,2,0,0,0,.18.336,1.871,1.871,0,0,0,.242.3,1.96,1.96,0,0,0,1.764.535,2.067,2.067,0,0,0,.365-.111,1.958,1.958,0,0,0,1.057-1.057A2.018,2.018,0,0,0,38,9.176a1.956,1.956,0,0,0,.037-.383A1.937,1.937,0,0,0,38,8.412Z" transform="translate(-34.126 -6.842)" fill="#fd6565"/>
        </g>
      </g>
      <g id="Grupo_110" data-name="Grupo 110" transform="translate(26.912 13.683)">
        <g id="Grupo_109" data-name="Grupo 109">
          <path id="Trazado_2194" data-name="Trazado 2194" d="M17.788,8.413a1.972,1.972,0,0,0-.111-.365,2,2,0,0,0-.18-.338,1.885,1.885,0,0,0-.539-.539,1.933,1.933,0,0,0-.338-.18,1.976,1.976,0,0,0-.365-.111,1.933,1.933,0,0,0-.764,0,2.066,2.066,0,0,0-.365.111,1.983,1.983,0,0,0-.336.18,1.849,1.849,0,0,0-.3.242,2,2,0,0,0-.244.3,2.019,2.019,0,0,0-.18.338,1.977,1.977,0,0,0-.111.365,1.909,1.909,0,0,0-.037.381,1.956,1.956,0,0,0,.037.383A1.956,1.956,0,0,0,15.126,10.6a2.067,2.067,0,0,0,.365.111,1.983,1.983,0,0,0,.764,0,1.972,1.972,0,0,0,.365-.111,1.946,1.946,0,0,0,.338-.18,2,2,0,0,0,.3-.244,1.859,1.859,0,0,0,.242-.3,1.982,1.982,0,0,0,.18-.336,2.018,2.018,0,0,0,.111-.365,1.959,1.959,0,0,0,.039-.383A1.924,1.924,0,0,0,17.788,8.413Z" transform="translate(-13.921 -6.841)" fill="#fd6565"/>
        </g>
      </g>
      <g id="Grupo_112" data-name="Grupo 112" transform="translate(13.76)">
        <g id="Grupo_111" data-name="Grupo 111">
          <path id="Trazado_2195" data-name="Trazado 2195" d="M71.366,85.744v-2.1A7.147,7.147,0,0,0,64.227,76.5H49.489V17.589h6.8a1.953,1.953,0,0,0,0-3.906H51.932a9.988,9.988,0,1,0-18.553,0H29.025a1.953,1.953,0,0,0,0,3.906h6.8V76.5H21.084a7.147,7.147,0,0,0-7.139,7.139v2.1A7.139,7.139,0,0,0,14.484,100H70.826a7.139,7.139,0,0,0,.54-14.258ZM42.655,3.906a6.079,6.079,0,0,1,3.656,10.937c-.1.078-.208.151-.314.221l-.129.083c-.1.065-.208.127-.314.185-.05.027-.1.053-.153.078q-.11.056-.222.107c-.068.031-.137.062-.206.091q-.137.057-.277.107-.091.033-.182.062c-.106.034-.213.066-.321.094-.054.014-.109.026-.163.039-.1.022-.194.043-.292.06l-.129.023q-.2.031-.4.049l-.108.008c-.146.01-.293.018-.441.018s-.3-.007-.441-.018l-.108-.008c-.136-.012-.271-.028-.4-.049l-.129-.023c-.1-.018-.2-.038-.292-.06-.054-.013-.109-.025-.163-.039-.108-.028-.215-.06-.321-.094q-.092-.03-.183-.062-.14-.05-.277-.107c-.07-.029-.138-.059-.206-.091s-.149-.07-.222-.107c-.051-.026-.1-.051-.153-.078-.106-.058-.211-.12-.314-.185l-.129-.083c-.106-.07-.211-.144-.314-.221A6.079,6.079,0,0,1,42.655,3.906Zm2.928,15.635V76.5H39.727V19.541a9.912,9.912,0,0,0,1.89.38l.057.005q.2.019.4.031l.112.006c.155.007.31.012.466.012s.312,0,.466-.012l.112-.006q.2-.011.4-.031l.057-.005A9.879,9.879,0,0,0,45.583,19.541ZM70.826,96.1H14.485a3.233,3.233,0,1,1,0-6.466H15.9c.03,0,.059,0,.089,0s.054,0,.081,0H53.616a1.953,1.953,0,1,0,0-3.906H17.851V83.638a3.236,3.236,0,0,1,3.233-3.233H64.227a3.236,3.236,0,0,1,3.233,3.233v4.038a1.953,1.953,0,0,0,1.953,1.953h1.414a3.233,3.233,0,1,1,0,6.466Z" transform="translate(-7.345)" fill="#fd6565"/>
        </g>
      </g>
      <g id="Grupo_114" data-name="Grupo 114" transform="translate(64.92 86.638)">
        <g id="Grupo_113" data-name="Grupo 113">
          <path id="Trazado_2196" data-name="Trazado 2196" d="M36.259,43.891a1.952,1.952,0,1,0,.572,1.381A1.967,1.967,0,0,0,36.259,43.891Z" transform="translate(-32.925 -43.318)" fill="#fd6565"/>
        </g>
      </g>
      <g id="Grupo_116" data-name="Grupo 116" transform="translate(67.705 13.682)">
        <g id="Grupo_115" data-name="Grupo 115">
          <path id="Trazado_2197" data-name="Trazado 2197" d="M63.484,33.492,52.575,10.747h3.663a1.953,1.953,0,0,0,0-3.906H42.269a1.953,1.953,0,0,0,0,3.906h4.225L35.586,33.492a1.952,1.952,0,0,0-1.269,1.828v.5a15.218,15.218,0,0,0,30.436,0v-.5A1.952,1.952,0,0,0,63.484,33.492ZM49.535,13.441l9.556,19.926H39.979Zm0,33.687a11.328,11.328,0,0,1-11.218-9.855H60.754A11.329,11.329,0,0,1,49.535,47.128Z" transform="translate(-34.317 -6.841)" fill="#fd6565"/>
        </g>
      </g>
      <g id="Grupo_118" data-name="Grupo 118" transform="translate(0 13.683)">
        <g id="Grupo_117" data-name="Grupo 117">
          <path id="Trazado_2198" data-name="Trazado 2198" d="M29.632,33.492,18.724,10.748h4.225a1.953,1.953,0,0,0,0-3.906H8.98a1.953,1.953,0,1,0,0,3.906h3.663L1.734,33.493A1.952,1.952,0,0,0,.465,35.32v.5a15.218,15.218,0,0,0,30.436,0v-.5A1.952,1.952,0,0,0,29.632,33.492ZM15.683,13.441l9.556,19.926H6.127Zm0,33.687A11.328,11.328,0,0,1,4.465,37.273H26.9A11.328,11.328,0,0,1,15.683,47.128Z" transform="translate(-0.465 -6.841)" fill="#fd6565"/>
        </g>
      </g>
    </g>
  </g>
</svg>
