<?xml version="1.0" encoding="UTF-8"?>
<svg xmlns="http://www.w3.org/2000/svg" xmlns:xlink="http://www.w3.org/1999/xlink" width="150pt" height="150pt" viewBox="0 0 150 150" version="1.1">
<g id="surface1">
<path style=" stroke:none;fill-rule:nonzero;fill:rgb(99.215686%,39.607843%,39.607843%);fill-opacity:1;" d="M 108.191406 22.882812 C 108.152344 22.695312 108.097656 22.511719 108.023438 22.332031 C 107.878906 21.976562 107.660156 21.652344 107.386719 21.382812 C 107.25 21.246094 107.101562 21.125 106.9375 21.019531 C 106.777344 20.910156 106.609375 20.820312 106.433594 20.746094 C 106.257812 20.675781 106.074219 20.621094 105.886719 20.582031 C 104.925781 20.394531 103.9375 20.691406 103.242188 21.382812 C 103.105469 21.519531 102.984375 21.667969 102.878906 21.832031 C 102.773438 21.992188 102.679688 22.160156 102.609375 22.339844 C 102.535156 22.515625 102.480469 22.699219 102.441406 22.886719 C 102.402344 23.074219 102.382812 23.265625 102.382812 23.457031 C 102.382812 23.648438 102.402344 23.84375 102.441406 24.03125 C 102.480469 24.21875 102.535156 24.402344 102.609375 24.578125 C 102.679688 24.753906 102.773438 24.925781 102.878906 25.082031 C 102.984375 25.246094 103.105469 25.394531 103.242188 25.53125 C 103.933594 26.222656 104.925781 26.523438 105.886719 26.335938 C 106.074219 26.296875 106.257812 26.242188 106.433594 26.167969 C 107.152344 25.871094 107.722656 25.300781 108.019531 24.582031 C 108.09375 24.402344 108.152344 24.21875 108.191406 24.027344 C 108.226562 23.835938 108.246094 23.644531 108.246094 23.453125 C 108.246094 23.261719 108.226562 23.070312 108.191406 22.882812 Z M 108.191406 22.882812 "/>
<path style=" stroke:none;fill-rule:nonzero;fill:rgb(99.215686%,39.607843%,39.607843%);fill-opacity:1;" d="M 47.5625 22.882812 C 47.527344 22.695312 47.46875 22.511719 47.398438 22.335938 C 47.324219 22.15625 47.234375 21.988281 47.128906 21.828125 C 46.914062 21.507812 46.640625 21.230469 46.320312 21.019531 C 46.160156 20.914062 45.988281 20.824219 45.8125 20.75 C 45.636719 20.675781 45.453125 20.621094 45.265625 20.582031 C 44.886719 20.507812 44.496094 20.507812 44.117188 20.582031 C 43.929688 20.621094 43.746094 20.675781 43.570312 20.75 C 43.394531 20.824219 43.226562 20.914062 43.066406 21.019531 C 42.902344 21.125 42.753906 21.246094 42.617188 21.382812 C 42.480469 21.519531 42.359375 21.671875 42.25 21.832031 C 42.144531 21.992188 42.054688 22.164062 41.980469 22.339844 C 41.90625 22.515625 41.851562 22.699219 41.8125 22.886719 C 41.777344 23.074219 41.757812 23.265625 41.757812 23.457031 C 41.757812 23.652344 41.777344 23.84375 41.8125 24.03125 C 42.007812 24.992188 42.667969 25.789062 43.570312 26.164062 C 43.746094 26.234375 43.929688 26.289062 44.117188 26.328125 C 44.496094 26.402344 44.886719 26.402344 45.265625 26.328125 C 45.453125 26.292969 45.636719 26.234375 45.8125 26.164062 C 45.988281 26.089844 46.160156 26 46.320312 25.894531 C 46.480469 25.785156 46.628906 25.664062 46.769531 25.527344 C 46.90625 25.390625 47.027344 25.238281 47.132812 25.078125 C 47.238281 24.917969 47.328125 24.75 47.402344 24.574219 C 47.472656 24.394531 47.53125 24.210938 47.566406 24.027344 C 47.605469 23.835938 47.625 23.644531 47.625 23.449219 C 47.625 23.261719 47.601562 23.070312 47.5625 22.882812 Z M 47.5625 22.882812 "/>
<path style=" stroke:none;fill-rule:nonzero;fill:rgb(99.215686%,39.607843%,39.607843%);fill-opacity:1;" d="M 118.066406 128.617188 L 118.066406 125.464844 C 118.0625 119.550781 113.273438 114.757812 107.359375 114.75 L 85.25 114.75 L 85.25 26.382812 L 95.449219 26.382812 C 97.070312 26.382812 98.378906 25.070312 98.378906 23.453125 C 98.378906 21.835938 97.070312 20.523438 95.449219 20.523438 L 88.914062 20.523438 C 91.410156 14.269531 89.429688 7.121094 84.070312 3.046875 C 78.710938 -1.03125 71.289062 -1.03125 65.933594 3.046875 C 60.574219 7.121094 58.589844 14.269531 61.085938 20.523438 L 54.554688 20.523438 C 52.9375 20.523438 51.625 21.835938 51.625 23.453125 C 51.625 25.070312 52.9375 26.382812 54.554688 26.382812 L 64.753906 26.382812 L 64.753906 114.75 L 42.644531 114.75 C 36.730469 114.757812 31.941406 119.546875 31.933594 125.457031 L 31.933594 128.609375 C 26.164062 129.003906 21.75 133.914062 21.96875 139.695312 C 22.1875 145.476562 26.957031 150.039062 32.742188 150 L 117.257812 150 C 123.015625 150.003906 127.75 145.453125 127.964844 139.695312 C 128.183594 133.941406 123.808594 129.042969 118.066406 128.613281 Z M 75 5.859375 C 78.921875 5.859375 82.40625 8.367188 83.652344 12.085938 C 84.894531 15.808594 83.617188 19.90625 80.484375 22.265625 C 80.335938 22.382812 80.171875 22.492188 80.011719 22.597656 L 79.820312 22.71875 C 79.667969 22.816406 79.507812 22.910156 79.347656 22.996094 C 79.273438 23.039062 79.199219 23.078125 79.117188 23.113281 C 79.007812 23.171875 78.898438 23.222656 78.785156 23.277344 C 78.683594 23.320312 78.582031 23.367188 78.476562 23.410156 C 78.339844 23.46875 78.203125 23.523438 78.0625 23.574219 C 77.96875 23.605469 77.878906 23.636719 77.789062 23.664062 C 77.628906 23.714844 77.46875 23.765625 77.308594 23.804688 C 77.226562 23.828125 77.144531 23.84375 77.0625 23.863281 C 76.914062 23.898438 76.773438 23.929688 76.625 23.953125 L 76.429688 23.988281 C 76.230469 24.019531 76.03125 24.046875 75.832031 24.0625 L 75.667969 24.074219 C 75.449219 24.089844 75.230469 24.101562 75.007812 24.101562 C 74.785156 24.101562 74.558594 24.089844 74.347656 24.074219 L 74.183594 24.0625 C 73.980469 24.046875 73.777344 24.019531 73.585938 23.988281 L 73.390625 23.953125 C 73.242188 23.929688 73.089844 23.898438 72.953125 23.863281 C 72.871094 23.84375 72.789062 23.828125 72.707031 23.804688 C 72.546875 23.765625 72.386719 23.714844 72.226562 23.664062 C 72.132812 23.636719 72.042969 23.605469 71.953125 23.574219 C 71.8125 23.523438 71.671875 23.46875 71.535156 23.410156 C 71.429688 23.367188 71.328125 23.324219 71.226562 23.277344 C 71.125 23.226562 71.003906 23.171875 70.894531 23.113281 C 70.816406 23.074219 70.746094 23.039062 70.664062 22.996094 C 70.507812 22.910156 70.347656 22.816406 70.195312 22.71875 L 70 22.597656 C 69.839844 22.492188 69.683594 22.378906 69.53125 22.265625 C 66.394531 19.90625 65.121094 15.8125 66.359375 12.09375 C 67.601562 8.375 71.078125 5.863281 75 5.859375 Z M 79.390625 29.3125 L 79.390625 114.75 L 70.609375 114.75 L 70.609375 29.3125 C 71.53125 29.59375 72.480469 29.785156 73.441406 29.882812 L 73.527344 29.890625 C 73.726562 29.90625 73.929688 29.921875 74.128906 29.933594 L 74.296875 29.945312 C 74.527344 29.953125 74.761719 29.960938 74.996094 29.960938 C 75.230469 29.960938 75.464844 29.960938 75.695312 29.945312 L 75.863281 29.933594 C 76.0625 29.925781 76.261719 29.910156 76.460938 29.890625 L 76.546875 29.882812 C 77.511719 29.785156 78.464844 29.59375 79.390625 29.3125 Z M 117.257812 144.148438 L 32.746094 144.148438 C 30.066406 144.148438 27.894531 141.980469 27.894531 139.300781 C 27.894531 136.621094 30.066406 134.449219 32.746094 134.449219 L 34.867188 134.449219 C 34.914062 134.449219 34.957031 134.449219 35 134.449219 C 35.046875 134.449219 35.082031 134.449219 35.121094 134.449219 L 91.441406 134.449219 C 93.058594 134.449219 94.371094 133.140625 94.371094 131.523438 C 94.371094 129.902344 93.058594 128.59375 91.441406 128.59375 L 37.792969 128.59375 L 37.792969 125.457031 C 37.796875 122.78125 39.964844 120.609375 42.644531 120.609375 L 107.359375 120.609375 C 110.035156 120.609375 112.203125 122.78125 112.207031 125.457031 L 112.207031 131.515625 C 112.207031 133.132812 113.519531 134.445312 115.136719 134.445312 L 117.257812 134.445312 C 119.9375 134.445312 122.109375 136.613281 122.109375 139.292969 C 122.109375 141.972656 119.9375 144.140625 117.257812 144.140625 Z M 117.257812 144.148438 "/>
<path style=" stroke:none;fill-rule:nonzero;fill:rgb(99.215686%,39.607843%,39.607843%);fill-opacity:1;" d="M 103.777344 130.816406 C 102.789062 129.828125 101.242188 129.675781 100.078125 130.453125 C 98.917969 131.230469 98.464844 132.71875 99 134.007812 C 99.535156 135.296875 100.90625 136.03125 102.277344 135.757812 C 103.648438 135.488281 104.632812 134.285156 104.632812 132.886719 C 104.632812 132.113281 104.324219 131.367188 103.777344 130.816406 Z M 103.777344 130.816406 "/>
<path style=" stroke:none;fill-rule:nonzero;fill:rgb(99.215686%,39.607843%,39.607843%);fill-opacity:1;" d="M 146.703125 60.5 L 130.339844 26.382812 L 135.835938 26.382812 C 137.453125 26.382812 138.761719 25.070312 138.761719 23.453125 C 138.761719 21.835938 137.453125 20.523438 135.835938 20.523438 L 114.878906 20.523438 C 113.261719 20.523438 111.949219 21.835938 111.949219 23.453125 C 111.949219 25.070312 113.261719 26.382812 114.878906 26.382812 L 121.21875 26.382812 L 104.855469 60.5 C 103.710938 60.925781 102.953125 62.019531 102.953125 63.242188 L 102.953125 63.992188 C 102.953125 76.597656 113.171875 86.820312 125.78125 86.820312 C 138.386719 86.820312 148.605469 76.597656 148.605469 63.992188 L 148.605469 63.242188 C 148.605469 62.019531 147.847656 60.925781 146.703125 60.5 Z M 125.78125 30.421875 L 140.113281 60.3125 L 111.445312 60.3125 Z M 125.78125 80.953125 C 117.257812 80.941406 110.0625 74.621094 108.953125 66.171875 L 142.609375 66.171875 C 141.5 74.621094 134.300781 80.941406 125.78125 80.953125 Z M 125.78125 80.953125 "/>
<path style=" stroke:none;fill-rule:nonzero;fill:rgb(99.215686%,39.607843%,39.607843%);fill-opacity:1;" d="M 45.144531 60.5 L 28.785156 26.386719 L 35.121094 26.386719 C 36.738281 26.386719 38.050781 25.074219 38.050781 23.457031 C 38.050781 21.835938 36.738281 20.527344 35.121094 20.527344 L 14.167969 20.527344 C 12.550781 20.527344 11.238281 21.835938 11.238281 23.457031 C 11.238281 25.074219 12.550781 26.386719 14.167969 26.386719 L 19.660156 26.386719 L 3.296875 60.503906 C 2.15625 60.929688 1.394531 62.023438 1.394531 63.242188 L 1.394531 63.992188 C 1.394531 76.601562 11.613281 86.820312 24.222656 86.820312 C 36.828125 86.820312 47.050781 76.601562 47.050781 63.992188 L 47.050781 63.242188 C 47.046875 62.019531 46.289062 60.929688 45.144531 60.5 Z M 24.222656 30.425781 L 38.554688 60.3125 L 9.886719 60.3125 Z M 24.222656 80.953125 C 15.699219 80.945312 8.503906 74.621094 7.394531 66.171875 L 41.046875 66.171875 C 39.9375 74.621094 32.742188 80.945312 24.222656 80.953125 Z M 24.222656 80.953125 "/>
</g>
</svg>
