<svg xmlns="http://www.w3.org/2000/svg" width="19.964" height="26" viewBox="0 0 19.964 26">
  <g id="pdf" transform="translate(-6.5)">
    <path id="Trazado_8" data-name="Trazado 8" d="M20.654,0H7.179C6.8,0,6.5.3,6.5.894V25.536A.7.7,0,0,0,7.179,26H25.785a.7.7,0,0,0,.679-.464V6.025c0-.323-.043-.427-.119-.5l-5.4-5.4A.41.41,0,0,0,20.654,0Z" fill="#e9e9e0"/>
    <path id="Trazado_9" data-name="Trazado 9" d="M37.5.151v5.5H43Z" transform="translate(-16.607 -0.081)" fill="#d9d7ca"/>
    <path id="Trazado_10" data-name="Trazado 10" d="M18.391,19.173h0a.745.745,0,0,1-.449-.151,1.113,1.113,0,0,1-.518-1.041c.084-.756,1.019-1.547,2.779-2.353a31.166,31.166,0,0,0,1.759-4.991c-.463-1.008-.914-2.317-.585-3.084a.891.891,0,0,1,.527-.564,2.279,2.279,0,0,1,.472-.08c.234,0,.44.3.585.487s.448.545-.173,3.158a14.836,14.836,0,0,0,2.362,3.511,9.033,9.033,0,0,1,1.559-.166c.727,0,1.168.169,1.347.519a.94.94,0,0,1-.181,1,1.234,1.234,0,0,1-1.031.553,3.087,3.087,0,0,1-1.955-1.061,22.246,22.246,0,0,0-4.1,1.31A13.173,13.173,0,0,1,19.684,18.2C19.208,18.861,18.8,19.173,18.391,19.173Zm1.236-2.38c-.992.558-1.4,1.016-1.426,1.274,0,.043-.017.155.2.321C18.471,18.366,18.875,18.182,19.627,16.793Zm6.331-2.062c.378.291.471.438.718.438a.7.7,0,0,0,.562-.2.735.735,0,0,0,.107-.193c-.057-.03-.133-.091-.546-.091A6.788,6.788,0,0,0,25.959,14.73ZM22.49,11.674a33.1,33.1,0,0,1-1.242,3.512,23.2,23.2,0,0,1,3.016-.938A15.893,15.893,0,0,1,22.49,11.674Zm-.282-3.929a1.113,1.113,0,0,0,.045,1.493C22.694,8.257,22.229,7.739,22.209,7.746Z" transform="translate(-5.849 -3.701)" fill="#cc4b4c"/>
    <path id="Trazado_11" data-name="Trazado 11" d="M25.785,46.893H7.179a.679.679,0,0,1-.679-.679V39H26.464v7.214A.679.679,0,0,1,25.785,46.893Z" transform="translate(0 -20.893)" fill="#cc4b4c"/>
    <g id="Grupo_32" data-name="Grupo 32" transform="translate(10.792 19.929)">
      <path id="Trazado_12" data-name="Trazado 12" d="M16.506,47.6h-.762V42.924H17.09a1.888,1.888,0,0,1,.59.1,1.6,1.6,0,0,1,.524.286,1.491,1.491,0,0,1,.375.46,1.275,1.275,0,0,1,.143.606,1.659,1.659,0,0,1-.121.644,1.347,1.347,0,0,1-.337.486,1.517,1.517,0,0,1-.52.3,2,2,0,0,1-.673.108h-.565V47.6Zm0-4.1v1.853h.7a.83.83,0,0,0,.276-.048.7.7,0,0,0,.251-.156.76.76,0,0,0,.184-.3,1.427,1.427,0,0,0,.07-.479,1.3,1.3,0,0,0-.032-.263.76.76,0,0,0-.13-.286.769.769,0,0,0-.276-.228,1.026,1.026,0,0,0-.47-.092h-.571Z" transform="translate(-15.744 -42.924)" fill="#fff"/>
      <path id="Trazado_13" data-name="Trazado 13" d="M27.861,45.133a3.437,3.437,0,0,1-.124.987,2.454,2.454,0,0,1-.314.686,1.615,1.615,0,0,1-.429.435,2.149,2.149,0,0,1-.46.238,1.9,1.9,0,0,1-.406.1,2.706,2.706,0,0,1-.273.021H24.084V42.924h1.409a2.677,2.677,0,0,1,1.038.187,2.155,2.155,0,0,1,.743.5,2.045,2.045,0,0,1,.441.708A2.343,2.343,0,0,1,27.861,45.133ZM25.6,47.044a1.261,1.261,0,0,0,1.117-.495,2.513,2.513,0,0,0,.343-1.435,2.43,2.43,0,0,0-.07-.578,1.236,1.236,0,0,0-.27-.517,1.424,1.424,0,0,0-.543-.375,2.337,2.337,0,0,0-.889-.143h-.444v3.542Z" transform="translate(-20.212 -42.924)" fill="#fff"/>
      <path id="Trazado_14" data-name="Trazado 14" d="M35.372,43.5v1.473h1.955v.52H35.372V47.6H34.6V42.924h2.926V43.5Z" transform="translate(-25.844 -42.924)" fill="#fff"/>
    </g>
  </g>
</svg>
