<svg id="cronologia" xmlns="http://www.w3.org/2000/svg" width="87" height="87" viewBox="0 0 87 87">
  <path id="Trazado_2226" data-name="Trazado 2226" d="M234.126,70.334l-15.293,5.338,15.293,5.338h5.1V70.334Z" transform="translate(-181.648 -58.383)" fill="#3857bc"/>
  <path id="Trazado_2227" data-name="Trazado 2227" d="M196.22,45.432V56.108H173.167V40.334l14.075,5.1Z" transform="translate(-143.742 -33.48)" fill="#3a6fd8"/>
  <path id="Trazado_2228" data-name="Trazado 2228" d="M151.293,7.5,136,12.838l15.293,5.338h5.1V7.5Z" transform="translate(-112.891 -6.226)" fill="#61ce5b"/>
  <path id="Trazado_2229" data-name="Trazado 2229" d="M7.5,7.5H44.628V18.177H7.5Z" transform="translate(-6.226 -6.226)" fill="#94e368"/>
  <path id="Trazado_2230" data-name="Trazado 2230" d="M358.376,226l-15.293,5.338,15.293,5.338h5.1V226Z" transform="translate(-284.786 -187.598)" fill="#3857bc"/>
  <path id="Trazado_2231" data-name="Trazado 2231" d="M217.332,201.1v10.677H173.167V196l14.075,5.1Z" transform="translate(-143.742 -162.696)" fill="#3a6fd8"/>
  <path id="Trazado_2232" data-name="Trazado 2232" d="M151.293,163.167,136,168.505l15.293,5.338h5.1V163.167Z" transform="translate(-112.891 -135.441)" fill="#61ce5b"/>
  <path id="Trazado_2233" data-name="Trazado 2233" d="M48.917,163.167h30.09v10.677H48.917Z" transform="translate(-40.605 -135.441)" fill="#94e368"/>
  <path id="Trazado_2234" data-name="Trazado 2234" d="M399.793,381.667,384.5,387.005l15.293,5.338h5.1V381.667Z" transform="translate(-319.165 -316.813)" fill="#3857bc"/>
  <path id="Trazado_2235" data-name="Trazado 2235" d="M327.507,356.765v10.677h-30.09V351.667l21.113,5.1Z" transform="translate(-246.879 -291.911)" fill="#3a6fd8"/>
  <path id="Trazado_2236" data-name="Trazado 2236" d="M316.96,318.833l-15.293,5.338,15.293,5.338h5.1V318.833Z" transform="translate(-250.407 -264.656)" fill="#61ce5b"/>
  <path id="Trazado_2237" data-name="Trazado 2237" d="M256,318.833h23.053V329.51H256Z" transform="translate(-212.5 -264.656)" fill="#94e368"/>
  <path id="Trazado_2238" data-name="Trazado 2238" d="M1.274,13.226H28.15v9.4A1.274,1.274,0,0,0,29.425,23.9h28.15a1.274,1.274,0,0,0,1.274-1.274V11.951a1.274,1.274,0,0,0-1.274-1.274h-12.8v-9.4A1.274,1.274,0,0,0,43.5,0H1.274A1.274,1.274,0,0,0,0,1.274V11.951A1.274,1.274,0,0,0,1.274,13.226Zm55.026,0v8.128H30.7V13.226ZM2.549,2.549H42.226v8.128H2.549Z"/>
  <path id="Trazado_2239" data-name="Trazado 2239" d="M79.154,156.941a1.274,1.274,0,0,0-1.274-1.274H42.691a1.274,1.274,0,0,0-1.274,1.274v10.677a1.274,1.274,0,0,0,1.274,1.274H62.53v9.4a1.274,1.274,0,0,0,1.274,1.274H75.331a1.274,1.274,0,0,0,0-2.549H65.079v-8.128h46.714v8.128H80.428a1.274,1.274,0,0,0,0,2.549h32.639a1.274,1.274,0,0,0,1.274-1.274V167.618a1.274,1.274,0,0,0-1.274-1.274H79.154Zm-2.549,9.4H43.966v-8.128H76.6Z" transform="translate(-34.379 -129.216)"/>
  <path id="Trazado_2240" data-name="Trazado 2240" d="M292,322.011H279.2v-9.4a1.274,1.274,0,0,0-1.274-1.274h-28.15a1.274,1.274,0,0,0-1.274,1.274v10.677a1.274,1.274,0,0,0,1.274,1.274h5.763v9.4a1.274,1.274,0,0,0,1.274,1.274H292a1.274,1.274,0,0,0,1.274-1.274V323.285A1.274,1.274,0,0,0,292,322.011Zm-40.951,0v-8.128h25.6v8.128Zm39.677,10.677H258.086V324.56h32.639Z" transform="translate(-206.274 -258.432)"/>
  <path id="Trazado_2241" data-name="Trazado 2241" d="M85.726,467H1.274A1.274,1.274,0,0,0,0,468.274v5.1a1.274,1.274,0,0,0,2.549,0v-3.823H7.038v1.274a1.274,1.274,0,1,0,2.549,0v-1.274h4.489v3.823a1.274,1.274,0,1,0,2.549,0v-3.823h4.489v1.274a1.274,1.274,0,0,0,2.549,0v-1.274h4.489v3.823a1.274,1.274,0,0,0,2.549,0v-3.823h4.489v1.274a1.274,1.274,0,0,0,2.549,0v-1.274h4.488v3.823a1.274,1.274,0,0,0,2.549,0v-3.823h4.489v1.274a1.274,1.274,0,0,0,2.549,0v-1.274H56.3v3.823a1.274,1.274,0,0,0,2.549,0v-3.823h4.489v1.274a1.274,1.274,0,0,0,2.549,0v-1.274h4.489v3.823a1.274,1.274,0,0,0,2.549,0v-3.823h4.489v1.274a1.274,1.274,0,0,0,2.549,0v-1.274h4.488v3.823a1.274,1.274,0,0,0,2.549,0v-5.1A1.274,1.274,0,0,0,85.726,467Z" transform="translate(0 -387.646)"/>
</svg>
